<svg width="551" height="406" viewBox="0 0 551 406" fill="none" xmlns="http://www.w3.org/2000/svg">
<path d="M550 239.417C550 216.209 544.347 193.351 533.532 172.826C522.717 152.301 507.066 134.73 487.937 121.637C468.808 108.544 446.779 100.325 423.761 97.6914C400.743 95.0582 377.431 98.0911 355.848 106.527L375.257 156.361C388.747 151.088 403.316 149.193 417.703 150.839C432.089 152.484 445.857 157.622 457.813 165.805C469.768 173.988 479.55 184.97 486.31 197.798C493.069 210.626 496.602 224.912 496.602 239.417H550Z" fill="#FF9900" stroke="#9D9D9D"/>
<path d="M355.847 106.527C341.828 112.006 328.765 119.677 317.143 129.255L351.066 170.566C358.33 164.58 366.494 159.785 375.256 156.361L355.847 106.527Z" fill="#001AFF" stroke="#9D9D9D"/>
<path d="M317.143 129.255C298.607 144.53 284.226 164.25 275.337 186.584C266.447 208.919 263.337 233.141 266.296 257.002C269.255 280.863 278.186 303.587 292.26 323.064C306.334 342.54 325.095 358.137 346.798 368.404C368.501 378.672 392.442 383.277 416.398 381.792C440.354 380.307 463.546 372.781 483.82 359.911C504.094 347.042 520.792 329.247 532.362 308.181C543.932 287.115 549.999 263.462 549.999 239.417H496.601C496.601 254.445 492.81 269.229 485.578 282.395C478.347 295.561 467.911 306.683 455.239 314.726C442.568 322.769 428.073 327.474 413.101 328.402C398.128 329.33 383.165 326.451 369.6 320.034C356.036 313.617 344.311 303.869 335.514 291.696C326.718 279.523 321.136 265.321 319.287 250.408C317.438 235.495 319.381 220.356 324.937 206.397C330.493 192.438 339.481 180.113 351.066 170.566L317.143 129.255Z" fill="#9D9D9D" stroke="#9D9D9D"/>
<path d="M487.936 121.637L508.019 92.1921" stroke="black"/>
<path d="M508.463 82.795V81.787C509.111 81.171 509.683 80.615 510.179 80.119C510.683 79.615 511.075 79.155 511.355 78.739C511.635 78.315 511.775 77.923 511.775 77.563C511.775 77.187 511.675 76.903 511.475 76.711C511.283 76.511 511.023 76.411 510.695 76.411C510.423 76.411 510.175 76.491 509.951 76.651C509.735 76.803 509.531 76.983 509.339 77.191L508.379 76.243C508.755 75.843 509.139 75.543 509.531 75.343C509.923 75.135 510.391 75.031 510.935 75.031C511.439 75.031 511.879 75.131 512.255 75.331C512.631 75.531 512.923 75.815 513.131 76.183C513.347 76.543 513.455 76.967 513.455 77.455C513.455 77.879 513.335 78.315 513.095 78.763C512.863 79.203 512.563 79.647 512.195 80.095C511.827 80.535 511.435 80.971 511.019 81.403C511.211 81.379 511.427 81.359 511.667 81.343C511.907 81.319 512.115 81.307 512.291 81.307H513.827V82.795H508.463ZM517.323 82.939C516.699 82.939 516.171 82.835 515.739 82.627C515.307 82.419 514.939 82.167 514.635 81.871L515.427 80.755C515.659 80.963 515.911 81.143 516.183 81.295C516.455 81.439 516.751 81.511 517.071 81.511C517.463 81.511 517.775 81.411 518.007 81.211C518.239 81.011 518.355 80.715 518.355 80.323C518.355 79.939 518.243 79.647 518.019 79.447C517.795 79.247 517.507 79.147 517.155 79.147C516.931 79.147 516.743 79.175 516.591 79.231C516.447 79.287 516.259 79.387 516.027 79.531L515.235 79.027L515.451 75.175H519.771V76.663H516.975L516.843 78.091C517.107 77.971 517.391 77.911 517.695 77.911C518.135 77.911 518.535 77.995 518.895 78.163C519.263 78.331 519.559 78.591 519.783 78.943C520.007 79.287 520.119 79.731 520.119 80.275C520.119 80.835 519.987 81.315 519.723 81.715C519.467 82.115 519.127 82.419 518.703 82.627C518.279 82.835 517.819 82.939 517.323 82.939ZM522.955 79.795C522.395 79.795 521.931 79.575 521.563 79.135C521.195 78.695 521.011 78.083 521.011 77.299C521.011 76.515 521.195 75.907 521.563 75.475C521.931 75.043 522.395 74.827 522.955 74.827C523.523 74.827 523.991 75.043 524.359 75.475C524.727 75.907 524.911 76.515 524.911 77.299C524.911 78.083 524.727 78.695 524.359 79.135C523.991 79.575 523.523 79.795 522.955 79.795ZM522.955 78.811C523.155 78.811 523.323 78.699 523.459 78.475C523.603 78.251 523.675 77.859 523.675 77.299C523.675 76.739 523.603 76.351 523.459 76.135C523.323 75.919 523.155 75.811 522.955 75.811C522.755 75.811 522.583 75.919 522.439 76.135C522.303 76.351 522.235 76.739 522.235 77.299C522.235 77.859 522.303 78.251 522.439 78.475C522.583 78.699 522.755 78.811 522.955 78.811ZM523.219 82.939L527.443 74.827H528.463L524.239 82.939H523.219ZM528.727 82.939C528.167 82.939 527.703 82.719 527.335 82.279C526.967 81.839 526.783 81.227 526.783 80.443C526.783 79.659 526.967 79.051 527.335 78.619C527.703 78.187 528.167 77.971 528.727 77.971C529.295 77.971 529.763 78.187 530.131 78.619C530.499 79.051 530.683 79.659 530.683 80.443C530.683 81.227 530.499 81.839 530.131 82.279C529.763 82.719 529.295 82.939 528.727 82.939ZM528.727 81.955C528.927 81.955 529.095 81.843 529.231 81.619C529.375 81.395 529.447 81.003 529.447 80.443C529.447 79.883 529.375 79.495 529.231 79.279C529.095 79.063 528.927 78.955 528.727 78.955C528.527 78.955 528.355 79.063 528.211 79.279C528.075 79.495 528.007 79.883 528.007 80.443C528.007 81.003 528.075 81.395 528.211 81.619C528.355 81.843 528.527 81.955 528.727 81.955Z" fill="black"/>
<path d="M335.596 116.354L317.594 85.5884" stroke="black"/>
<path d="M303.929 76.3352C303.305 76.3352 302.777 76.2312 302.345 76.0232C301.913 75.8152 301.545 75.5632 301.241 75.2672L302.033 74.1512C302.265 74.3592 302.517 74.5392 302.789 74.6912C303.061 74.8352 303.357 74.9072 303.677 74.9072C304.069 74.9072 304.381 74.8072 304.613 74.6072C304.845 74.4072 304.961 74.1112 304.961 73.7192C304.961 73.3352 304.849 73.0432 304.625 72.8432C304.401 72.6432 304.113 72.5432 303.761 72.5432C303.537 72.5432 303.349 72.5712 303.197 72.6272C303.053 72.6832 302.865 72.7832 302.633 72.9272L301.841 72.4232L302.057 68.5712H306.377V70.0592H303.581L303.449 71.4872C303.713 71.3672 303.997 71.3072 304.301 71.3072C304.741 71.3072 305.141 71.3912 305.501 71.5592C305.869 71.7272 306.165 71.9872 306.389 72.3392C306.613 72.6832 306.725 73.1272 306.725 73.6712C306.725 74.2312 306.593 74.7112 306.329 75.1112C306.073 75.5112 305.733 75.8152 305.309 76.0232C304.885 76.2312 304.425 76.3352 303.929 76.3352ZM309.561 73.1912C309.001 73.1912 308.537 72.9712 308.169 72.5312C307.801 72.0912 307.617 71.4792 307.617 70.6952C307.617 69.9112 307.801 69.3032 308.169 68.8712C308.537 68.4392 309.001 68.2232 309.561 68.2232C310.129 68.2232 310.597 68.4392 310.965 68.8712C311.333 69.3032 311.517 69.9112 311.517 70.6952C311.517 71.4792 311.333 72.0912 310.965 72.5312C310.597 72.9712 310.129 73.1912 309.561 73.1912ZM309.561 72.2072C309.761 72.2072 309.929 72.0952 310.065 71.8712C310.209 71.6472 310.281 71.2552 310.281 70.6952C310.281 70.1352 310.209 69.7472 310.065 69.5312C309.929 69.3152 309.761 69.2072 309.561 69.2072C309.361 69.2072 309.189 69.3152 309.045 69.5312C308.909 69.7472 308.841 70.1352 308.841 70.6952C308.841 71.2552 308.909 71.6472 309.045 71.8712C309.189 72.0952 309.361 72.2072 309.561 72.2072ZM309.825 76.3352L314.049 68.2232H315.069L310.845 76.3352H309.825ZM315.333 76.3352C314.773 76.3352 314.309 76.1152 313.941 75.6752C313.573 75.2352 313.389 74.6232 313.389 73.8392C313.389 73.0552 313.573 72.4472 313.941 72.0152C314.309 71.5832 314.773 71.3672 315.333 71.3672C315.901 71.3672 316.369 71.5832 316.737 72.0152C317.105 72.4472 317.289 73.0552 317.289 73.8392C317.289 74.6232 317.105 75.2352 316.737 75.6752C316.369 76.1152 315.901 76.3352 315.333 76.3352ZM315.333 75.3512C315.533 75.3512 315.701 75.2392 315.837 75.0152C315.981 74.7912 316.053 74.3992 316.053 73.8392C316.053 73.2792 315.981 72.8912 315.837 72.6752C315.701 72.4592 315.533 72.3512 315.333 72.3512C315.133 72.3512 314.961 72.4592 314.817 72.6752C314.681 72.8912 314.613 73.2792 314.613 73.8392C314.613 74.3992 314.681 74.7912 314.817 75.0152C314.961 75.2392 315.133 75.3512 315.333 75.3512Z" fill="black"/>
<path d="M346.798 368.404L331.596 400.651" stroke="black"/>
<path d="M310.535 391.254C310.583 390.406 310.675 389.646 310.811 388.974C310.947 388.302 311.155 387.658 311.435 387.042C311.715 386.426 312.095 385.786 312.575 385.122H309.155V383.634H314.459V384.714C314.019 385.25 313.663 385.754 313.391 386.226C313.127 386.698 312.919 387.182 312.767 387.678C312.623 388.166 312.519 388.698 312.455 389.274C312.391 389.85 312.343 390.51 312.311 391.254H310.535ZM318.135 391.398C317.319 391.398 316.659 391.058 316.155 390.378C315.659 389.698 315.411 388.71 315.411 387.414C315.411 386.118 315.659 385.142 316.155 384.486C316.659 383.822 317.319 383.49 318.135 383.49C318.951 383.49 319.607 383.822 320.103 384.486C320.607 385.142 320.859 386.118 320.859 387.414C320.859 388.71 320.607 389.698 320.103 390.378C319.607 391.058 318.951 391.398 318.135 391.398ZM318.135 390.03C318.335 390.03 318.515 389.958 318.675 389.814C318.835 389.662 318.959 389.398 319.047 389.022C319.143 388.646 319.191 388.11 319.191 387.414C319.191 386.718 319.143 386.186 319.047 385.818C318.959 385.45 318.835 385.198 318.675 385.062C318.515 384.926 318.335 384.858 318.135 384.858C317.943 384.858 317.767 384.926 317.607 385.062C317.447 385.198 317.319 385.45 317.223 385.818C317.127 386.186 317.079 386.718 317.079 387.414C317.079 388.11 317.127 388.646 317.223 389.022C317.319 389.398 317.447 389.662 317.607 389.814C317.767 389.958 317.943 390.03 318.135 390.03ZM323.563 388.254C323.003 388.254 322.539 388.034 322.171 387.594C321.803 387.154 321.619 386.542 321.619 385.758C321.619 384.974 321.803 384.366 322.171 383.934C322.539 383.502 323.003 383.286 323.563 383.286C324.131 383.286 324.599 383.502 324.967 383.934C325.335 384.366 325.519 384.974 325.519 385.758C325.519 386.542 325.335 387.154 324.967 387.594C324.599 388.034 324.131 388.254 323.563 388.254ZM323.563 387.27C323.763 387.27 323.931 387.158 324.067 386.934C324.211 386.71 324.283 386.318 324.283 385.758C324.283 385.198 324.211 384.81 324.067 384.594C323.931 384.378 323.763 384.27 323.563 384.27C323.363 384.27 323.191 384.378 323.047 384.594C322.911 384.81 322.843 385.198 322.843 385.758C322.843 386.318 322.911 386.71 323.047 386.934C323.191 387.158 323.363 387.27 323.563 387.27ZM323.827 391.398L328.051 383.286H329.071L324.847 391.398H323.827ZM329.335 391.398C328.775 391.398 328.311 391.178 327.943 390.738C327.575 390.298 327.391 389.686 327.391 388.902C327.391 388.118 327.575 387.51 327.943 387.078C328.311 386.646 328.775 386.43 329.335 386.43C329.903 386.43 330.371 386.646 330.739 387.078C331.107 387.51 331.291 388.118 331.291 388.902C331.291 389.686 331.107 390.298 330.739 390.738C330.371 391.178 329.903 391.398 329.335 391.398ZM329.335 390.414C329.535 390.414 329.703 390.302 329.839 390.078C329.983 389.854 330.055 389.462 330.055 388.902C330.055 388.342 329.983 387.954 329.839 387.738C329.703 387.522 329.535 387.414 329.335 387.414C329.135 387.414 328.963 387.522 328.819 387.738C328.683 387.954 328.615 388.342 328.615 388.902C328.615 389.462 328.683 389.854 328.819 390.078C328.963 390.302 329.135 390.414 329.335 390.414Z" fill="black"/>
<path d="M47.2021 163.563V155.739H48.9661V163.563H47.2021ZM50.6675 163.563V157.611H52.1075L52.2275 158.367H52.2755C52.5315 158.127 52.8115 157.919 53.1155 157.743C53.4275 157.559 53.7835 157.467 54.1835 157.467C54.8315 157.467 55.2995 157.683 55.5875 158.115C55.8835 158.539 56.0315 159.123 56.0315 159.867V163.563H54.2675V160.095C54.2675 159.663 54.2075 159.367 54.0875 159.207C53.9755 159.047 53.7915 158.967 53.5355 158.967C53.3115 158.967 53.1195 159.019 52.9595 159.123C52.7995 159.219 52.6235 159.359 52.4315 159.543V163.563H50.6675ZM60.1266 163.707C59.5746 163.707 59.0746 163.587 58.6266 163.347C58.1866 163.099 57.8346 162.743 57.5706 162.279C57.3146 161.807 57.1866 161.243 57.1866 160.587C57.1866 159.923 57.3306 159.359 57.6186 158.895C57.9066 158.431 58.2866 158.079 58.7586 157.839C59.2306 157.591 59.7386 157.467 60.2826 157.467C60.6506 157.467 60.9746 157.527 61.2546 157.647C61.5426 157.767 61.7986 157.919 62.0226 158.103L61.1946 159.243C60.9146 159.011 60.6466 158.895 60.3906 158.895C59.9666 158.895 59.6266 159.047 59.3706 159.351C59.1226 159.655 58.9986 160.067 58.9986 160.587C58.9986 161.099 59.1226 161.511 59.3706 161.823C59.6266 162.127 59.9466 162.279 60.3306 162.279C60.5226 162.279 60.7106 162.239 60.8946 162.159C61.0786 162.071 61.2466 161.967 61.3986 161.847L62.0946 162.999C61.7986 163.255 61.4786 163.439 61.1346 163.551C60.7906 163.655 60.4546 163.707 60.1266 163.707ZM65.3524 163.707C64.8484 163.707 64.3724 163.587 63.9244 163.347C63.4844 163.099 63.1284 162.743 62.8564 162.279C62.5844 161.807 62.4484 161.243 62.4484 160.587C62.4484 159.923 62.5844 159.359 62.8564 158.895C63.1284 158.431 63.4844 158.079 63.9244 157.839C64.3724 157.591 64.8484 157.467 65.3524 157.467C65.8564 157.467 66.3284 157.591 66.7684 157.839C67.2084 158.079 67.5644 158.431 67.8364 158.895C68.1084 159.359 68.2444 159.923 68.2444 160.587C68.2444 161.243 68.1084 161.807 67.8364 162.279C67.5644 162.743 67.2084 163.099 66.7684 163.347C66.3284 163.587 65.8564 163.707 65.3524 163.707ZM65.3524 162.279C65.7124 162.279 65.9844 162.127 66.1684 161.823C66.3524 161.511 66.4444 161.099 66.4444 160.587C66.4444 160.067 66.3524 159.655 66.1684 159.351C65.9844 159.047 65.7124 158.895 65.3524 158.895C64.9844 158.895 64.7084 159.047 64.5244 159.351C64.3484 159.655 64.2604 160.067 64.2604 160.587C64.2604 161.099 64.3484 161.511 64.5244 161.823C64.7084 162.127 64.9844 162.279 65.3524 162.279ZM69.4526 163.563V157.611H70.8926L71.0126 158.379H71.0606C71.3086 158.131 71.5726 157.919 71.8526 157.743C72.1326 157.559 72.4686 157.467 72.8606 157.467C73.2846 157.467 73.6246 157.555 73.8806 157.731C74.1446 157.899 74.3526 158.143 74.5046 158.463C74.7686 158.191 75.0486 157.959 75.3446 157.767C75.6406 157.567 75.9846 157.467 76.3766 157.467C77.0166 157.467 77.4846 157.683 77.7806 158.115C78.0846 158.539 78.2366 159.123 78.2366 159.867V163.563H76.4726V160.095C76.4726 159.663 76.4126 159.367 76.2926 159.207C76.1806 159.047 75.9966 158.967 75.7406 158.967C75.4446 158.967 75.1046 159.159 74.7206 159.543V163.563H72.9566V160.095C72.9566 159.663 72.8966 159.367 72.7766 159.207C72.6646 159.047 72.4806 158.967 72.2246 158.967C71.9286 158.967 71.5926 159.159 71.2166 159.543V163.563H69.4526ZM79.7417 165.771V157.611H81.1817L81.3017 158.199H81.3497C81.5817 157.991 81.8417 157.819 82.1297 157.683C82.4257 157.539 82.7297 157.467 83.0417 157.467C83.7617 157.467 84.3297 157.743 84.7457 158.295C85.1617 158.839 85.3697 159.571 85.3697 160.491C85.3697 161.171 85.2497 161.751 85.0097 162.231C84.7697 162.711 84.4577 163.079 84.0737 163.335C83.6977 163.583 83.2937 163.707 82.8617 163.707C82.6057 163.707 82.3577 163.655 82.1177 163.551C81.8777 163.439 81.6537 163.283 81.4457 163.083L81.5057 164.031V165.771H79.7417ZM82.4537 162.267C82.7577 162.267 83.0177 162.127 83.2337 161.847C83.4497 161.567 83.5577 161.123 83.5577 160.515C83.5577 159.443 83.2137 158.907 82.5257 158.907C82.1817 158.907 81.8417 159.087 81.5057 159.447V161.883C81.6657 162.027 81.8257 162.127 81.9857 162.183C82.1457 162.239 82.3017 162.267 82.4537 162.267ZM88.2406 163.707C87.6326 163.707 87.2086 163.527 86.9686 163.167C86.7366 162.799 86.6206 162.315 86.6206 161.715V155.151H88.3846V161.787C88.3846 161.971 88.4166 162.099 88.4806 162.171C88.5526 162.243 88.6246 162.279 88.6966 162.279C88.7366 162.279 88.7686 162.279 88.7926 162.279C88.8246 162.271 88.8646 162.263 88.9126 162.255L89.1286 163.563C89.0326 163.603 88.9086 163.635 88.7566 163.659C88.6126 163.691 88.4406 163.707 88.2406 163.707ZM92.7182 163.707C92.1502 163.707 91.6382 163.583 91.1822 163.335C90.7262 163.087 90.3662 162.731 90.1022 162.267C89.8382 161.803 89.7062 161.243 89.7062 160.587C89.7062 159.939 89.8382 159.383 90.1022 158.919C90.3742 158.455 90.7262 158.099 91.1582 157.851C91.5902 157.595 92.0422 157.467 92.5142 157.467C93.0822 157.467 93.5502 157.595 93.9182 157.851C94.2942 158.099 94.5742 158.439 94.7582 158.871C94.9502 159.295 95.0462 159.779 95.0462 160.323C95.0462 160.475 95.0382 160.627 95.0222 160.779C95.0062 160.923 94.9902 161.031 94.9742 161.103H91.4102C91.4902 161.535 91.6702 161.855 91.9502 162.063C92.2302 162.263 92.5662 162.363 92.9582 162.363C93.3822 162.363 93.8102 162.231 94.2422 161.967L94.8302 163.035C94.5262 163.243 94.1862 163.407 93.8102 163.527C93.4342 163.647 93.0702 163.707 92.7182 163.707ZM91.3982 159.939H93.5462C93.5462 159.611 93.4662 159.343 93.3062 159.135C93.1542 158.919 92.9022 158.811 92.5502 158.811C92.2782 158.811 92.0342 158.907 91.8182 159.099C91.6022 159.283 91.4622 159.563 91.3982 159.939ZM98.4399 163.707C97.7039 163.707 97.1759 163.495 96.8559 163.071C96.5439 162.647 96.3879 162.091 96.3879 161.403V158.991H95.5719V157.683L96.4839 157.611L96.6879 156.027H98.1519V157.611H99.5799V158.991H98.1519V161.379C98.1519 161.715 98.2199 161.959 98.3559 162.111C98.4999 162.255 98.6879 162.327 98.9199 162.327C99.0159 162.327 99.1119 162.315 99.2079 162.291C99.3119 162.267 99.4039 162.239 99.4839 162.207L99.7599 163.491C99.6079 163.539 99.4199 163.587 99.1959 163.635C98.9799 163.683 98.7279 163.707 98.4399 163.707ZM103.195 163.707C102.627 163.707 102.115 163.583 101.659 163.335C101.203 163.087 100.843 162.731 100.579 162.267C100.315 161.803 100.183 161.243 100.183 160.587C100.183 159.939 100.315 159.383 100.579 158.919C100.851 158.455 101.203 158.099 101.635 157.851C102.067 157.595 102.519 157.467 102.991 157.467C103.559 157.467 104.027 157.595 104.395 157.851C104.771 158.099 105.051 158.439 105.235 158.871C105.427 159.295 105.523 159.779 105.523 160.323C105.523 160.475 105.515 160.627 105.499 160.779C105.483 160.923 105.467 161.031 105.451 161.103H101.887C101.967 161.535 102.147 161.855 102.427 162.063C102.707 162.263 103.043 162.363 103.435 162.363C103.859 162.363 104.287 162.231 104.719 161.967L105.307 163.035C105.003 163.243 104.663 163.407 104.287 163.527C103.911 163.647 103.547 163.707 103.195 163.707ZM101.875 159.939H104.023C104.023 159.611 103.943 159.343 103.783 159.135C103.631 158.919 103.379 158.811 103.027 158.811C102.755 158.811 102.511 158.907 102.295 159.099C102.079 159.283 101.939 159.563 101.875 159.939ZM110.812 165.711C110.308 164.887 109.916 164.031 109.636 163.143C109.364 162.255 109.228 161.283 109.228 160.227C109.228 159.171 109.364 158.199 109.636 157.311C109.916 156.423 110.308 155.567 110.812 154.743L111.916 155.199C111.476 155.975 111.156 156.795 110.956 157.659C110.756 158.515 110.656 159.371 110.656 160.227C110.656 161.075 110.756 161.931 110.956 162.795C111.156 163.651 111.476 164.471 111.916 165.255L110.812 165.711ZM114.397 163.563C114.445 162.715 114.537 161.955 114.673 161.283C114.809 160.611 115.017 159.967 115.297 159.351C115.577 158.735 115.957 158.095 116.437 157.431H113.017V155.943H118.321V157.023C117.881 157.559 117.525 158.063 117.253 158.535C116.989 159.007 116.781 159.491 116.629 159.987C116.485 160.475 116.381 161.007 116.317 161.583C116.253 162.159 116.205 162.819 116.173 163.563H114.397ZM121.997 163.707C121.181 163.707 120.521 163.367 120.017 162.687C119.521 162.007 119.273 161.019 119.273 159.723C119.273 158.427 119.521 157.451 120.017 156.795C120.521 156.131 121.181 155.799 121.997 155.799C122.813 155.799 123.469 156.131 123.965 156.795C124.469 157.451 124.721 158.427 124.721 159.723C124.721 161.019 124.469 162.007 123.965 162.687C123.469 163.367 122.813 163.707 121.997 163.707ZM121.997 162.339C122.197 162.339 122.377 162.267 122.537 162.123C122.697 161.971 122.821 161.707 122.909 161.331C123.005 160.955 123.053 160.419 123.053 159.723C123.053 159.027 123.005 158.495 122.909 158.127C122.821 157.759 122.697 157.507 122.537 157.371C122.377 157.235 122.197 157.167 121.997 157.167C121.805 157.167 121.629 157.235 121.469 157.371C121.309 157.507 121.181 157.759 121.085 158.127C120.989 158.495 120.941 159.027 120.941 159.723C120.941 160.419 120.989 160.955 121.085 161.331C121.181 161.707 121.309 161.971 121.469 162.123C121.629 162.267 121.805 162.339 121.997 162.339ZM127.425 160.563C126.865 160.563 126.401 160.343 126.033 159.903C125.665 159.463 125.481 158.851 125.481 158.067C125.481 157.283 125.665 156.675 126.033 156.243C126.401 155.811 126.865 155.595 127.425 155.595C127.993 155.595 128.461 155.811 128.829 156.243C129.197 156.675 129.381 157.283 129.381 158.067C129.381 158.851 129.197 159.463 128.829 159.903C128.461 160.343 127.993 160.563 127.425 160.563ZM127.425 159.579C127.625 159.579 127.793 159.467 127.929 159.243C128.073 159.019 128.145 158.627 128.145 158.067C128.145 157.507 128.073 157.119 127.929 156.903C127.793 156.687 127.625 156.579 127.425 156.579C127.225 156.579 127.053 156.687 126.909 156.903C126.773 157.119 126.705 157.507 126.705 158.067C126.705 158.627 126.773 159.019 126.909 159.243C127.053 159.467 127.225 159.579 127.425 159.579ZM127.689 163.707L131.913 155.595H132.933L128.709 163.707H127.689ZM133.197 163.707C132.637 163.707 132.173 163.487 131.805 163.047C131.437 162.607 131.253 161.995 131.253 161.211C131.253 160.427 131.437 159.819 131.805 159.387C132.173 158.955 132.637 158.739 133.197 158.739C133.765 158.739 134.233 158.955 134.601 159.387C134.969 159.819 135.153 160.427 135.153 161.211C135.153 161.995 134.969 162.607 134.601 163.047C134.233 163.487 133.765 163.707 133.197 163.707ZM133.197 162.723C133.397 162.723 133.565 162.611 133.701 162.387C133.845 162.163 133.917 161.771 133.917 161.211C133.917 160.651 133.845 160.263 133.701 160.047C133.565 159.831 133.397 159.723 133.197 159.723C132.997 159.723 132.825 159.831 132.681 160.047C132.545 160.263 132.477 160.651 132.477 161.211C132.477 161.771 132.545 162.163 132.681 162.387C132.825 162.611 132.997 162.723 133.197 162.723ZM137.138 165.711L136.034 165.255C136.482 164.471 136.806 163.651 137.006 162.795C137.206 161.931 137.306 161.075 137.306 160.227C137.306 159.371 137.206 158.515 137.006 157.659C136.806 156.795 136.482 155.975 136.034 155.199L137.138 154.743C137.642 155.567 138.03 156.423 138.302 157.311C138.582 158.199 138.722 159.171 138.722 160.227C138.722 161.283 138.582 162.255 138.302 163.143C138.03 164.031 137.642 164.887 137.138 165.711Z" fill="black"/>
<path d="M43.3469 233.247C42.6909 233.247 42.0869 233.095 41.5349 232.791C40.9829 232.487 40.5389 232.039 40.2029 231.447C39.8749 230.847 39.7109 230.111 39.7109 229.239C39.7109 228.375 39.8789 227.639 40.2149 227.031C40.5589 226.415 41.0109 225.947 41.5709 225.627C42.1389 225.299 42.7509 225.135 43.4069 225.135C43.9109 225.135 44.3629 225.239 44.7629 225.447C45.1629 225.647 45.4949 225.883 45.7589 226.155L44.8229 227.283C44.6229 227.099 44.4109 226.951 44.1869 226.839C43.9709 226.719 43.7229 226.659 43.4429 226.659C43.0909 226.659 42.7669 226.759 42.4709 226.959C42.1829 227.159 41.9509 227.447 41.7749 227.823C41.6069 228.199 41.5229 228.651 41.5229 229.179C41.5229 229.979 41.6949 230.603 42.0389 231.051C42.3829 231.499 42.8429 231.723 43.4189 231.723C43.7389 231.723 44.0229 231.651 44.2709 231.507C44.5269 231.363 44.7509 231.191 44.9429 230.991L45.8789 232.095C45.2229 232.863 44.3789 233.247 43.3469 233.247ZM49.4793 233.247C48.9753 233.247 48.4993 233.127 48.0513 232.887C47.6113 232.639 47.2553 232.283 46.9833 231.819C46.7113 231.347 46.5753 230.783 46.5753 230.127C46.5753 229.463 46.7113 228.899 46.9833 228.435C47.2553 227.971 47.6113 227.619 48.0513 227.379C48.4993 227.131 48.9753 227.007 49.4793 227.007C49.9833 227.007 50.4553 227.131 50.8953 227.379C51.3353 227.619 51.6913 227.971 51.9633 228.435C52.2353 228.899 52.3713 229.463 52.3713 230.127C52.3713 230.783 52.2353 231.347 51.9633 231.819C51.6913 232.283 51.3353 232.639 50.8953 232.887C50.4553 233.127 49.9833 233.247 49.4793 233.247ZM49.4793 231.819C49.8393 231.819 50.1113 231.667 50.2953 231.363C50.4793 231.051 50.5713 230.639 50.5713 230.127C50.5713 229.607 50.4793 229.195 50.2953 228.891C50.1113 228.587 49.8393 228.435 49.4793 228.435C49.1113 228.435 48.8353 228.587 48.6513 228.891C48.4753 229.195 48.3873 229.607 48.3873 230.127C48.3873 230.639 48.4753 231.051 48.6513 231.363C48.8353 231.667 49.1113 231.819 49.4793 231.819ZM53.5796 233.103V227.151H55.0196L55.1396 227.919H55.1876C55.4356 227.671 55.6996 227.459 55.9796 227.283C56.2596 227.099 56.5956 227.007 56.9876 227.007C57.4116 227.007 57.7516 227.095 58.0076 227.271C58.2716 227.439 58.4796 227.683 58.6316 228.003C58.8956 227.731 59.1756 227.499 59.4716 227.307C59.7676 227.107 60.1116 227.007 60.5036 227.007C61.1436 227.007 61.6116 227.223 61.9076 227.655C62.2116 228.079 62.3636 228.663 62.3636 229.407V233.103H60.5996V229.635C60.5996 229.203 60.5396 228.907 60.4196 228.747C60.3076 228.587 60.1236 228.507 59.8676 228.507C59.5716 228.507 59.2316 228.699 58.8476 229.083V233.103H57.0836V229.635C57.0836 229.203 57.0236 228.907 56.9036 228.747C56.7916 228.587 56.6076 228.507 56.3516 228.507C56.0556 228.507 55.7196 228.699 55.3436 229.083V233.103H53.5796ZM63.8686 235.311V227.151H65.3086L65.4286 227.739H65.4766C65.7086 227.531 65.9686 227.359 66.2566 227.223C66.5526 227.079 66.8566 227.007 67.1686 227.007C67.8886 227.007 68.4566 227.283 68.8726 227.835C69.2886 228.379 69.4966 229.111 69.4966 230.031C69.4966 230.711 69.3766 231.291 69.1366 231.771C68.8966 232.251 68.5846 232.619 68.2006 232.875C67.8246 233.123 67.4206 233.247 66.9886 233.247C66.7326 233.247 66.4846 233.195 66.2446 233.091C66.0046 232.979 65.7806 232.823 65.5726 232.623L65.6326 233.571V235.311H63.8686ZM66.5806 231.807C66.8846 231.807 67.1446 231.667 67.3606 231.387C67.5766 231.107 67.6846 230.663 67.6846 230.055C67.6846 228.983 67.3406 228.447 66.6526 228.447C66.3086 228.447 65.9686 228.627 65.6326 228.987V231.423C65.7926 231.567 65.9526 231.667 66.1126 231.723C66.2726 231.779 66.4286 231.807 66.5806 231.807ZM72.3675 233.247C71.7595 233.247 71.3355 233.067 71.0955 232.707C70.8635 232.339 70.7475 231.855 70.7475 231.255V224.691H72.5115V231.327C72.5115 231.511 72.5435 231.639 72.6075 231.711C72.6795 231.783 72.7515 231.819 72.8235 231.819C72.8635 231.819 72.8955 231.819 72.9195 231.819C72.9515 231.811 72.9915 231.803 73.0395 231.795L73.2555 233.103C73.1595 233.143 73.0355 233.175 72.8835 233.199C72.7395 233.231 72.5675 233.247 72.3675 233.247ZM76.8451 233.247C76.2771 233.247 75.7651 233.123 75.3091 232.875C74.8531 232.627 74.4931 232.271 74.2291 231.807C73.9651 231.343 73.8331 230.783 73.8331 230.127C73.8331 229.479 73.9651 228.923 74.2291 228.459C74.5011 227.995 74.8531 227.639 75.2851 227.391C75.7171 227.135 76.1691 227.007 76.6411 227.007C77.2091 227.007 77.6771 227.135 78.0451 227.391C78.4211 227.639 78.7011 227.979 78.8851 228.411C79.0771 228.835 79.1731 229.319 79.1731 229.863C79.1731 230.015 79.1651 230.167 79.1491 230.319C79.1331 230.463 79.1171 230.571 79.1011 230.643H75.5371C75.6171 231.075 75.7971 231.395 76.0771 231.603C76.3571 231.803 76.6931 231.903 77.0851 231.903C77.5091 231.903 77.9371 231.771 78.3691 231.507L78.9571 232.575C78.6531 232.783 78.3131 232.947 77.9371 233.067C77.5611 233.187 77.1971 233.247 76.8451 233.247ZM75.5251 229.479H77.6731C77.6731 229.151 77.5931 228.883 77.4331 228.675C77.2811 228.459 77.0291 228.351 76.6771 228.351C76.4051 228.351 76.1611 228.447 75.9451 228.639C75.7291 228.823 75.5891 229.103 75.5251 229.479ZM82.5669 233.247C81.8309 233.247 81.3029 233.035 80.9829 232.611C80.6709 232.187 80.5149 231.631 80.5149 230.943V228.531H79.6989V227.223L80.6109 227.151L80.8149 225.567H82.2789V227.151H83.7069V228.531H82.2789V230.919C82.2789 231.255 82.3469 231.499 82.4829 231.651C82.6269 231.795 82.8149 231.867 83.0469 231.867C83.1429 231.867 83.2389 231.855 83.3349 231.831C83.4389 231.807 83.5309 231.779 83.6109 231.747L83.8869 233.031C83.7349 233.079 83.5469 233.127 83.3229 233.175C83.1069 233.223 82.8549 233.247 82.5669 233.247ZM87.3217 233.247C86.7537 233.247 86.2417 233.123 85.7857 232.875C85.3297 232.627 84.9697 232.271 84.7057 231.807C84.4417 231.343 84.3097 230.783 84.3097 230.127C84.3097 229.479 84.4417 228.923 84.7057 228.459C84.9777 227.995 85.3297 227.639 85.7617 227.391C86.1937 227.135 86.6457 227.007 87.1177 227.007C87.6857 227.007 88.1537 227.135 88.5217 227.391C88.8977 227.639 89.1777 227.979 89.3617 228.411C89.5537 228.835 89.6497 229.319 89.6497 229.863C89.6497 230.015 89.6417 230.167 89.6257 230.319C89.6097 230.463 89.5937 230.571 89.5777 230.643H86.0137C86.0937 231.075 86.2737 231.395 86.5537 231.603C86.8337 231.803 87.1697 231.903 87.5617 231.903C87.9857 231.903 88.4137 231.771 88.8457 231.507L89.4337 232.575C89.1297 232.783 88.7897 232.947 88.4137 233.067C88.0377 233.187 87.6737 233.247 87.3217 233.247ZM86.0017 229.479H88.1497C88.1497 229.151 88.0697 228.883 87.9097 228.675C87.7577 228.459 87.5057 228.351 87.1537 228.351C86.8817 228.351 86.6377 228.447 86.4217 228.639C86.2057 228.823 86.0657 229.103 86.0017 229.479ZM92.9926 233.247C92.2566 233.247 91.6646 232.971 91.2166 232.419C90.7766 231.859 90.5566 231.095 90.5566 230.127C90.5566 229.479 90.6726 228.923 90.9046 228.459C91.1446 227.987 91.4526 227.627 91.8286 227.379C92.2126 227.131 92.6126 227.007 93.0286 227.007C93.3566 227.007 93.6326 227.063 93.8566 227.175C94.0806 227.287 94.2926 227.439 94.4926 227.631L94.4206 226.719V224.691H96.1846V233.103H94.7446L94.6246 232.515H94.5766C94.3686 232.723 94.1246 232.899 93.8446 233.043C93.5646 233.179 93.2806 233.247 92.9926 233.247ZM93.4486 231.807C93.6406 231.807 93.8126 231.767 93.9646 231.687C94.1246 231.607 94.2766 231.467 94.4206 231.267V228.831C94.2686 228.687 94.1046 228.587 93.9286 228.531C93.7606 228.475 93.5966 228.447 93.4366 228.447C93.1566 228.447 92.9086 228.583 92.6926 228.855C92.4766 229.119 92.3686 229.535 92.3686 230.103C92.3686 230.687 92.4606 231.119 92.6446 231.399C92.8366 231.671 93.1046 231.807 93.4486 231.807ZM101.818 235.251C101.314 234.427 100.922 233.571 100.642 232.683C100.37 231.795 100.234 230.823 100.234 229.767C100.234 228.711 100.37 227.739 100.642 226.851C100.922 225.963 101.314 225.107 101.818 224.283L102.922 224.739C102.482 225.515 102.162 226.335 101.962 227.199C101.762 228.055 101.662 228.911 101.662 229.767C101.662 230.615 101.762 231.471 101.962 232.335C102.162 233.191 102.482 234.011 102.922 234.795L101.818 235.251ZM103.939 233.103V232.095C104.587 231.479 105.159 230.923 105.655 230.427C106.159 229.923 106.551 229.463 106.831 229.047C107.111 228.623 107.251 228.231 107.251 227.871C107.251 227.495 107.151 227.211 106.951 227.019C106.759 226.819 106.499 226.719 106.171 226.719C105.899 226.719 105.651 226.799 105.427 226.959C105.211 227.111 105.007 227.291 104.815 227.499L103.855 226.551C104.231 226.151 104.615 225.851 105.007 225.651C105.399 225.443 105.867 225.339 106.411 225.339C106.915 225.339 107.355 225.439 107.731 225.639C108.107 225.839 108.399 226.123 108.607 226.491C108.823 226.851 108.931 227.275 108.931 227.763C108.931 228.187 108.811 228.623 108.571 229.071C108.339 229.511 108.039 229.955 107.671 230.403C107.303 230.843 106.911 231.279 106.495 231.711C106.687 231.687 106.903 231.667 107.143 231.651C107.383 231.627 107.591 231.615 107.767 231.615H109.303V233.103H103.939ZM112.799 233.247C112.175 233.247 111.647 233.143 111.215 232.935C110.783 232.727 110.415 232.475 110.111 232.179L110.903 231.063C111.135 231.271 111.387 231.451 111.659 231.603C111.931 231.747 112.227 231.819 112.547 231.819C112.939 231.819 113.251 231.719 113.483 231.519C113.715 231.319 113.831 231.023 113.831 230.631C113.831 230.247 113.719 229.955 113.495 229.755C113.271 229.555 112.983 229.455 112.631 229.455C112.407 229.455 112.219 229.483 112.067 229.539C111.923 229.595 111.735 229.695 111.503 229.839L110.711 229.335L110.927 225.483H115.247V226.971H112.451L112.319 228.399C112.583 228.279 112.867 228.219 113.171 228.219C113.611 228.219 114.011 228.303 114.371 228.471C114.739 228.639 115.035 228.899 115.259 229.251C115.483 229.595 115.595 230.039 115.595 230.583C115.595 231.143 115.463 231.623 115.199 232.023C114.943 232.423 114.603 232.727 114.179 232.935C113.755 233.143 113.295 233.247 112.799 233.247ZM118.431 230.103C117.871 230.103 117.407 229.883 117.039 229.443C116.671 229.003 116.487 228.391 116.487 227.607C116.487 226.823 116.671 226.215 117.039 225.783C117.407 225.351 117.871 225.135 118.431 225.135C118.999 225.135 119.467 225.351 119.835 225.783C120.203 226.215 120.387 226.823 120.387 227.607C120.387 228.391 120.203 229.003 119.835 229.443C119.467 229.883 118.999 230.103 118.431 230.103ZM118.431 229.119C118.631 229.119 118.799 229.007 118.935 228.783C119.079 228.559 119.151 228.167 119.151 227.607C119.151 227.047 119.079 226.659 118.935 226.443C118.799 226.227 118.631 226.119 118.431 226.119C118.231 226.119 118.059 226.227 117.915 226.443C117.779 226.659 117.711 227.047 117.711 227.607C117.711 228.167 117.779 228.559 117.915 228.783C118.059 229.007 118.231 229.119 118.431 229.119ZM118.695 233.247L122.919 225.135H123.939L119.715 233.247H118.695ZM124.203 233.247C123.643 233.247 123.179 233.027 122.811 232.587C122.443 232.147 122.259 231.535 122.259 230.751C122.259 229.967 122.443 229.359 122.811 228.927C123.179 228.495 123.643 228.279 124.203 228.279C124.771 228.279 125.239 228.495 125.607 228.927C125.975 229.359 126.159 229.967 126.159 230.751C126.159 231.535 125.975 232.147 125.607 232.587C125.239 233.027 124.771 233.247 124.203 233.247ZM124.203 232.263C124.403 232.263 124.571 232.151 124.707 231.927C124.851 231.703 124.923 231.311 124.923 230.751C124.923 230.191 124.851 229.803 124.707 229.587C124.571 229.371 124.403 229.263 124.203 229.263C124.003 229.263 123.831 229.371 123.687 229.587C123.551 229.803 123.483 230.191 123.483 230.751C123.483 231.311 123.551 231.703 123.687 231.927C123.831 232.151 124.003 232.263 124.203 232.263ZM128.144 235.251L127.04 234.795C127.488 234.011 127.812 233.191 128.012 232.335C128.212 231.471 128.312 230.615 128.312 229.767C128.312 228.911 128.212 228.055 128.012 227.199C127.812 226.335 127.488 225.515 127.04 224.739L128.144 224.283C128.648 225.107 129.036 225.963 129.308 226.851C129.588 227.739 129.728 228.711 129.728 229.767C129.728 230.823 129.588 231.795 129.308 232.683C129.036 233.571 128.648 234.427 128.144 235.251Z" fill="black"/>
<path d="M48.9823 304.427V296.603H50.7463V304.427H48.9823ZM52.4477 304.427V298.475H53.8877L54.0077 299.231H54.0557C54.3117 298.991 54.5917 298.783 54.8957 298.607C55.2077 298.423 55.5637 298.331 55.9637 298.331C56.6117 298.331 57.0797 298.547 57.3677 298.979C57.6637 299.403 57.8117 299.987 57.8117 300.731V304.427H56.0477V300.959C56.0477 300.527 55.9877 300.231 55.8677 300.071C55.7557 299.911 55.5717 299.831 55.3157 299.831C55.0917 299.831 54.8997 299.883 54.7397 299.987C54.5797 300.083 54.4037 300.223 54.2117 300.407V304.427H52.4477ZM61.8613 304.427V296.603H64.5493C65.1253 296.603 65.6453 296.683 66.1093 296.843C66.5813 296.995 66.9573 297.255 67.2373 297.623C67.5173 297.991 67.6573 298.491 67.6573 299.123C67.6573 299.731 67.5173 300.231 67.2373 300.623C66.9573 301.015 66.5853 301.307 66.1213 301.499C65.6573 301.683 65.1493 301.775 64.5973 301.775H63.6253V304.427H61.8613ZM63.6253 300.371H64.4893C65.4493 300.371 65.9293 299.955 65.9293 299.123C65.9293 298.715 65.8013 298.427 65.5453 298.259C65.2893 298.091 64.9213 298.007 64.4413 298.007H63.6253V300.371ZM68.8657 304.427V298.475H70.3057L70.4257 299.519H70.4737C70.6897 299.119 70.9497 298.823 71.2537 298.631C71.5577 298.431 71.8617 298.331 72.1657 298.331C72.3337 298.331 72.4737 298.343 72.5857 298.367C72.6977 298.383 72.7937 298.411 72.8737 298.451L72.5857 299.975C72.4817 299.943 72.3777 299.919 72.2737 299.903C72.1777 299.887 72.0657 299.879 71.9377 299.879C71.7137 299.879 71.4777 299.963 71.2297 300.131C70.9897 300.291 70.7897 300.571 70.6297 300.971V304.427H68.8657ZM76.0858 304.571C75.5818 304.571 75.1058 304.451 74.6578 304.211C74.2178 303.963 73.8618 303.607 73.5898 303.143C73.3178 302.671 73.1818 302.107 73.1818 301.451C73.1818 300.787 73.3178 300.223 73.5898 299.759C73.8618 299.295 74.2178 298.943 74.6578 298.703C75.1058 298.455 75.5818 298.331 76.0858 298.331C76.5898 298.331 77.0618 298.455 77.5018 298.703C77.9418 298.943 78.2978 299.295 78.5698 299.759C78.8418 300.223 78.9778 300.787 78.9778 301.451C78.9778 302.107 78.8418 302.671 78.5698 303.143C78.2978 303.607 77.9418 303.963 77.5018 304.211C77.0618 304.451 76.5898 304.571 76.0858 304.571ZM76.0858 303.143C76.4458 303.143 76.7178 302.991 76.9018 302.687C77.0858 302.375 77.1778 301.963 77.1778 301.451C77.1778 300.931 77.0858 300.519 76.9018 300.215C76.7178 299.911 76.4458 299.759 76.0858 299.759C75.7178 299.759 75.4418 299.911 75.2578 300.215C75.0818 300.519 74.9938 300.931 74.9938 301.451C74.9938 301.963 75.0818 302.375 75.2578 302.687C75.4418 302.991 75.7178 303.143 76.0858 303.143ZM82.31 306.959C81.846 306.959 81.426 306.907 81.05 306.803C80.674 306.699 80.374 306.535 80.15 306.311C79.926 306.087 79.814 305.799 79.814 305.447C79.814 304.967 80.098 304.567 80.666 304.247V304.199C80.514 304.095 80.382 303.963 80.27 303.803C80.166 303.643 80.114 303.439 80.114 303.191C80.114 302.975 80.178 302.767 80.306 302.567C80.434 302.367 80.594 302.203 80.786 302.075V302.027C80.578 301.883 80.39 301.675 80.222 301.403C80.062 301.131 79.982 300.823 79.982 300.479C79.982 299.999 80.098 299.603 80.33 299.291C80.562 298.971 80.866 298.731 81.242 298.571C81.618 298.411 82.018 298.331 82.442 298.331C82.794 298.331 83.102 298.379 83.366 298.475H85.538V299.759H84.59C84.646 299.847 84.69 299.959 84.722 300.095C84.762 300.231 84.782 300.379 84.782 300.539C84.782 300.995 84.678 301.371 84.47 301.667C84.262 301.963 83.982 302.183 83.63 302.327C83.278 302.471 82.882 302.543 82.442 302.543C82.21 302.543 81.97 302.503 81.722 302.423C81.578 302.543 81.506 302.691 81.506 302.867C81.506 303.019 81.574 303.131 81.71 303.203C81.846 303.275 82.078 303.311 82.406 303.311H83.366C84.102 303.311 84.662 303.431 85.046 303.671C85.438 303.903 85.634 304.287 85.634 304.823C85.634 305.231 85.498 305.595 85.226 305.915C84.954 306.243 84.57 306.499 84.074 306.683C83.578 306.867 82.99 306.959 82.31 306.959ZM82.442 301.475C82.674 301.475 82.866 301.391 83.018 301.223C83.178 301.055 83.258 300.807 83.258 300.479C83.258 300.167 83.178 299.931 83.018 299.771C82.866 299.603 82.674 299.519 82.442 299.519C82.21 299.519 82.014 299.599 81.854 299.759C81.702 299.919 81.626 300.159 81.626 300.479C81.626 300.807 81.702 301.055 81.854 301.223C82.014 301.391 82.21 301.475 82.442 301.475ZM82.586 305.855C82.986 305.855 83.314 305.783 83.57 305.639C83.826 305.495 83.954 305.323 83.954 305.123C83.954 304.939 83.874 304.815 83.714 304.751C83.562 304.687 83.338 304.655 83.042 304.655H82.43C82.23 304.655 82.062 304.647 81.926 304.631C81.798 304.623 81.686 304.607 81.59 304.583C81.374 304.775 81.266 304.971 81.266 305.171C81.266 305.395 81.386 305.563 81.626 305.675C81.874 305.795 82.194 305.855 82.586 305.855ZM86.5962 304.427V298.475H88.0362L88.1562 299.519H88.2042C88.4202 299.119 88.6802 298.823 88.9842 298.631C89.2882 298.431 89.5922 298.331 89.8962 298.331C90.0642 298.331 90.2042 298.343 90.3162 298.367C90.4282 298.383 90.5242 298.411 90.6042 298.451L90.3162 299.975C90.2122 299.943 90.1082 299.919 90.0042 299.903C89.9082 299.887 89.7962 299.879 89.6682 299.879C89.4442 299.879 89.2082 299.963 88.9602 300.131C88.7202 300.291 88.5202 300.571 88.3602 300.971V304.427H86.5962ZM93.9242 304.571C93.3562 304.571 92.8442 304.447 92.3882 304.199C91.9322 303.951 91.5722 303.595 91.3082 303.131C91.0442 302.667 90.9122 302.107 90.9122 301.451C90.9122 300.803 91.0442 300.247 91.3082 299.783C91.5802 299.319 91.9322 298.963 92.3642 298.715C92.7962 298.459 93.2482 298.331 93.7202 298.331C94.2882 298.331 94.7562 298.459 95.1242 298.715C95.5002 298.963 95.7802 299.303 95.9642 299.735C96.1562 300.159 96.2522 300.643 96.2522 301.187C96.2522 301.339 96.2442 301.491 96.2282 301.643C96.2122 301.787 96.1962 301.895 96.1802 301.967H92.6162C92.6962 302.399 92.8762 302.719 93.1562 302.927C93.4362 303.127 93.7722 303.227 94.1642 303.227C94.5882 303.227 95.0162 303.095 95.4482 302.831L96.0362 303.899C95.7322 304.107 95.3922 304.271 95.0162 304.391C94.6402 304.511 94.2762 304.571 93.9242 304.571ZM92.6042 300.803H94.7522C94.7522 300.475 94.6722 300.207 94.5122 299.999C94.3602 299.783 94.1082 299.675 93.7562 299.675C93.4842 299.675 93.2402 299.771 93.0242 299.963C92.8082 300.147 92.6682 300.427 92.6042 300.803ZM99.2232 304.571C98.8312 304.571 98.4272 304.495 98.0112 304.343C97.6032 304.191 97.2472 303.991 96.9432 303.743L97.7352 302.639C98.0072 302.839 98.2672 302.995 98.5152 303.107C98.7712 303.211 99.0232 303.263 99.2712 303.263C99.5352 303.263 99.7272 303.219 99.8472 303.131C99.9672 303.035 100.027 302.911 100.027 302.759C100.027 302.623 99.9672 302.511 99.8472 302.423C99.7352 302.335 99.5872 302.255 99.4032 302.183C99.2192 302.103 99.0232 302.023 98.8152 301.943C98.5752 301.847 98.3352 301.727 98.0952 301.583C97.8632 301.439 97.6672 301.255 97.5072 301.031C97.3472 300.799 97.2672 300.519 97.2672 300.191C97.2672 299.639 97.4752 299.191 97.8912 298.847C98.3152 298.503 98.8672 298.331 99.5472 298.331C100.003 298.331 100.403 298.411 100.747 298.571C101.099 298.723 101.399 298.895 101.647 299.087L100.855 300.143C100.647 299.983 100.439 299.859 100.231 299.771C100.023 299.683 99.8152 299.639 99.6072 299.639C99.1512 299.639 98.9232 299.795 98.9232 300.107C98.9232 300.299 99.0352 300.447 99.2592 300.551C99.4912 300.647 99.7592 300.751 100.063 300.863C100.319 300.951 100.567 301.067 100.807 301.211C101.055 301.347 101.259 301.531 101.419 301.763C101.587 301.987 101.671 302.283 101.671 302.651C101.671 303.187 101.463 303.643 101.047 304.019C100.631 304.387 100.023 304.571 99.2232 304.571ZM104.543 304.571C104.151 304.571 103.747 304.495 103.331 304.343C102.923 304.191 102.567 303.991 102.263 303.743L103.055 302.639C103.327 302.839 103.587 302.995 103.835 303.107C104.091 303.211 104.343 303.263 104.591 303.263C104.855 303.263 105.047 303.219 105.167 303.131C105.287 303.035 105.347 302.911 105.347 302.759C105.347 302.623 105.287 302.511 105.167 302.423C105.055 302.335 104.907 302.255 104.723 302.183C104.539 302.103 104.343 302.023 104.135 301.943C103.895 301.847 103.655 301.727 103.415 301.583C103.183 301.439 102.987 301.255 102.827 301.031C102.667 300.799 102.587 300.519 102.587 300.191C102.587 299.639 102.795 299.191 103.211 298.847C103.635 298.503 104.187 298.331 104.867 298.331C105.323 298.331 105.723 298.411 106.067 298.571C106.419 298.723 106.719 298.895 106.967 299.087L106.175 300.143C105.967 299.983 105.759 299.859 105.551 299.771C105.343 299.683 105.135 299.639 104.927 299.639C104.471 299.639 104.243 299.795 104.243 300.107C104.243 300.299 104.355 300.447 104.579 300.551C104.811 300.647 105.079 300.751 105.383 300.863C105.639 300.951 105.887 301.067 106.127 301.211C106.375 301.347 106.579 301.531 106.739 301.763C106.907 301.987 106.991 302.283 106.991 302.651C106.991 303.187 106.783 303.643 106.367 304.019C105.951 304.387 105.343 304.571 104.543 304.571ZM112.182 306.575C111.678 305.751 111.286 304.895 111.006 304.007C110.734 303.119 110.598 302.147 110.598 301.091C110.598 300.035 110.734 299.063 111.006 298.175C111.286 297.287 111.678 296.431 112.182 295.607L113.286 296.063C112.846 296.839 112.526 297.659 112.326 298.523C112.126 299.379 112.026 300.235 112.026 301.091C112.026 301.939 112.126 302.795 112.326 303.659C112.526 304.515 112.846 305.335 113.286 306.119L112.182 306.575ZM116.823 304.571C116.199 304.571 115.671 304.467 115.239 304.259C114.807 304.051 114.439 303.799 114.135 303.503L114.927 302.387C115.159 302.595 115.411 302.775 115.683 302.927C115.955 303.071 116.251 303.143 116.571 303.143C116.963 303.143 117.275 303.043 117.507 302.843C117.739 302.643 117.855 302.347 117.855 301.955C117.855 301.571 117.743 301.279 117.519 301.079C117.295 300.879 117.007 300.779 116.655 300.779C116.431 300.779 116.243 300.807 116.091 300.863C115.947 300.919 115.759 301.019 115.527 301.163L114.735 300.659L114.951 296.807H119.271V298.295H116.475L116.343 299.723C116.607 299.603 116.891 299.543 117.195 299.543C117.635 299.543 118.035 299.627 118.395 299.795C118.763 299.963 119.059 300.223 119.283 300.575C119.507 300.919 119.619 301.363 119.619 301.907C119.619 302.467 119.487 302.947 119.223 303.347C118.967 303.747 118.627 304.051 118.203 304.259C117.779 304.467 117.319 304.571 116.823 304.571ZM122.455 301.427C121.895 301.427 121.431 301.207 121.063 300.767C120.695 300.327 120.511 299.715 120.511 298.931C120.511 298.147 120.695 297.539 121.063 297.107C121.431 296.675 121.895 296.459 122.455 296.459C123.023 296.459 123.491 296.675 123.859 297.107C124.227 297.539 124.411 298.147 124.411 298.931C124.411 299.715 124.227 300.327 123.859 300.767C123.491 301.207 123.023 301.427 122.455 301.427ZM122.455 300.443C122.655 300.443 122.823 300.331 122.959 300.107C123.103 299.883 123.175 299.491 123.175 298.931C123.175 298.371 123.103 297.983 122.959 297.767C122.823 297.551 122.655 297.443 122.455 297.443C122.255 297.443 122.083 297.551 121.939 297.767C121.803 297.983 121.735 298.371 121.735 298.931C121.735 299.491 121.803 299.883 121.939 300.107C122.083 300.331 122.255 300.443 122.455 300.443ZM122.719 304.571L126.943 296.459H127.963L123.739 304.571H122.719ZM128.227 304.571C127.667 304.571 127.203 304.351 126.835 303.911C126.467 303.471 126.283 302.859 126.283 302.075C126.283 301.291 126.467 300.683 126.835 300.251C127.203 299.819 127.667 299.603 128.227 299.603C128.795 299.603 129.263 299.819 129.631 300.251C129.999 300.683 130.183 301.291 130.183 302.075C130.183 302.859 129.999 303.471 129.631 303.911C129.263 304.351 128.795 304.571 128.227 304.571ZM128.227 303.587C128.427 303.587 128.595 303.475 128.731 303.251C128.875 303.027 128.947 302.635 128.947 302.075C128.947 301.515 128.875 301.127 128.731 300.911C128.595 300.695 128.427 300.587 128.227 300.587C128.027 300.587 127.855 300.695 127.711 300.911C127.575 301.127 127.507 301.515 127.507 302.075C127.507 302.635 127.575 303.027 127.711 303.251C127.855 303.475 128.027 303.587 128.227 303.587ZM132.168 306.575L131.064 306.119C131.512 305.335 131.836 304.515 132.036 303.659C132.236 302.795 132.336 301.939 132.336 301.091C132.336 300.235 132.236 299.379 132.036 298.523C131.836 297.659 131.512 296.839 131.064 296.063L132.168 295.607C132.672 296.431 133.06 297.287 133.332 298.175C133.612 299.063 133.752 300.035 133.752 301.091C133.752 302.147 133.612 303.119 133.332 304.007C133.06 304.895 132.672 305.751 132.168 306.575Z" fill="black"/>
<ellipse cx="15.1294" cy="163.153" rx="15.1294" ry="15.1563" fill="#9D9D9D"/>
<ellipse cx="15.1294" cy="234.476" rx="15.1294" ry="15.1563" fill="#FF9900"/>
<ellipse cx="15.1294" cy="304.017" rx="15.1294" ry="15.1563" fill="#001AFF"/>
<path d="M14.098 9.54688H10.9872C10.9304 9.14441 10.8144 8.78693 10.6392 8.47443C10.464 8.1572 10.2391 7.88731 9.96449 7.66477C9.68987 7.44223 9.37263 7.27178 9.01278 7.15341C8.65767 7.03504 8.27178 6.97585 7.85511 6.97585C7.10227 6.97585 6.4465 7.16288 5.88778 7.53693C5.32907 7.90625 4.89583 8.44602 4.58807 9.15625C4.2803 9.86174 4.12642 10.7187 4.12642 11.7273C4.12642 12.7642 4.2803 13.6354 4.58807 14.3409C4.90057 15.0464 5.33617 15.5791 5.89489 15.9389C6.4536 16.2988 7.09991 16.4787 7.83381 16.4787C8.24574 16.4787 8.62689 16.4242 8.97727 16.3153C9.33239 16.2064 9.64725 16.0478 9.92188 15.8395C10.1965 15.6264 10.4238 15.3684 10.6037 15.0653C10.7884 14.7623 10.9162 14.4167 10.9872 14.0284L14.098 14.0426C14.0175 14.7102 13.8163 15.3542 13.4943 15.9744C13.1771 16.59 12.7486 17.1416 12.2088 17.6293C11.6738 18.1122 11.0346 18.4957 10.2912 18.7798C9.55256 19.0592 8.71686 19.1989 7.78409 19.1989C6.48674 19.1989 5.3267 18.9053 4.30398 18.3182C3.28598 17.7311 2.48106 16.8812 1.8892 15.7685C1.30208 14.6558 1.00852 13.3087 1.00852 11.7273C1.00852 10.1411 1.30682 8.79167 1.90341 7.67898C2.5 6.56629 3.30966 5.71875 4.33239 5.13636C5.35511 4.54924 6.50568 4.25568 7.78409 4.25568C8.62689 4.25568 9.40814 4.37405 10.1278 4.6108C10.8523 4.84754 11.4938 5.19318 12.0526 5.64773C12.6113 6.09754 13.0658 6.64915 13.4162 7.30256C13.7713 7.95597 13.9986 8.70407 14.098 9.54688ZM16.2464 19V8.09091H19.1797V9.99432H19.2933C19.4922 9.31723 19.826 8.80587 20.2947 8.46023C20.7635 8.10985 21.3033 7.93466 21.9141 7.93466C22.0656 7.93466 22.2289 7.94413 22.4041 7.96307C22.5793 7.98201 22.7332 8.00805 22.8658 8.04119V10.7259C22.7237 10.6832 22.5272 10.6454 22.2763 10.6122C22.0253 10.5791 21.7957 10.5625 21.5874 10.5625C21.1423 10.5625 20.7446 10.6596 20.3942 10.8537C20.0485 11.0431 19.7739 11.3082 19.5703 11.6491C19.3714 11.9901 19.272 12.383 19.272 12.8281V19H16.2464ZM28.8938 19.2131C27.7717 19.2131 26.8058 18.9858 25.9961 18.5312C25.1912 18.072 24.5709 17.4233 24.1353 16.5852C23.6997 15.7424 23.4819 14.7457 23.4819 13.5952C23.4819 12.473 23.6997 11.4882 24.1353 10.6406C24.5709 9.79309 25.1841 9.13258 25.9748 8.65909C26.7702 8.18561 27.703 7.94886 28.7731 7.94886C29.4928 7.94886 30.1628 8.06487 30.783 8.29688C31.408 8.52415 31.9525 8.86742 32.4165 9.3267C32.8853 9.78598 33.2499 10.3636 33.5103 11.0597C33.7707 11.7509 33.9009 12.5606 33.9009 13.4886V14.3196H24.6893V12.4446H31.0529C31.0529 12.009 30.9582 11.6231 30.7688 11.2869C30.5794 10.9508 30.3166 10.688 29.9805 10.4986C29.649 10.3045 29.2631 10.2074 28.8228 10.2074C28.3635 10.2074 27.9563 10.3139 27.6012 10.527C27.2508 10.7353 26.9762 11.017 26.7773 11.3722C26.5785 11.7225 26.4767 12.1132 26.4719 12.544V14.3267C26.4719 14.8665 26.5714 15.3329 26.7702 15.7259C26.9738 16.1188 27.2603 16.4219 27.6296 16.6349C27.9989 16.848 28.4369 16.9545 28.9435 16.9545C29.2797 16.9545 29.5875 16.9072 29.8668 16.8125C30.1462 16.7178 30.3853 16.5758 30.5842 16.3864C30.783 16.197 30.9345 15.965 31.0387 15.6903L33.837 15.875C33.695 16.5473 33.4038 17.1345 32.9634 17.6364C32.5278 18.1335 31.9644 18.5218 31.2731 18.8011C30.5865 19.0758 29.7934 19.2131 28.8938 19.2131ZM39.8952 19.1776C39.0666 19.1776 38.3162 18.9645 37.6438 18.5384C36.9762 18.1075 36.4459 17.4754 36.0529 16.642C35.6647 15.804 35.4705 14.7765 35.4705 13.5597C35.4705 12.3097 35.6718 11.2704 36.0742 10.4418C36.4767 9.60843 37.0117 8.9858 37.6793 8.57386C38.3517 8.1572 39.0879 7.94886 39.8881 7.94886C40.4989 7.94886 41.0079 8.05303 41.4151 8.26136C41.8271 8.46496 42.1585 8.72064 42.4094 9.02841C42.6651 9.33144 42.8593 9.62973 42.9918 9.9233H43.0842V4.45455H46.1026V19H43.1197V17.2528H42.9918C42.8498 17.5559 42.6486 17.8565 42.3881 18.1548C42.1325 18.4484 41.7987 18.6922 41.3867 18.8864C40.9795 19.0805 40.4824 19.1776 39.8952 19.1776ZM40.854 16.7699C41.3417 16.7699 41.7537 16.6373 42.0898 16.3722C42.4308 16.1023 42.6912 15.7259 42.8711 15.2429C43.0558 14.7599 43.1481 14.1941 43.1481 13.5455C43.1481 12.8968 43.0581 12.3333 42.8782 11.8551C42.6983 11.3769 42.4379 11.0076 42.0969 10.7472C41.756 10.4867 41.3417 10.3565 40.854 10.3565C40.3569 10.3565 39.9379 10.4915 39.5969 10.7614C39.256 11.0312 38.998 11.4053 38.8228 11.8835C38.6476 12.3617 38.56 12.9157 38.56 13.5455C38.56 14.1799 38.6476 14.741 38.8228 15.2287C39.0027 15.7116 39.2608 16.0904 39.5969 16.3651C39.9379 16.6349 40.3569 16.7699 40.854 16.7699ZM48.5902 19V8.09091H51.6158V19H48.5902ZM50.1101 6.68466C49.6603 6.68466 49.2744 6.53551 48.9524 6.23722C48.6352 5.93419 48.4766 5.57197 48.4766 5.15057C48.4766 4.7339 48.6352 4.37642 48.9524 4.07812C49.2744 3.77509 49.6603 3.62358 50.1101 3.62358C50.5599 3.62358 50.9434 3.77509 51.2607 4.07812C51.5826 4.37642 51.7436 4.7339 51.7436 5.15057C51.7436 5.57197 51.5826 5.93419 51.2607 6.23722C50.9434 6.53551 50.5599 6.68466 50.1101 6.68466ZM59.842 8.09091V10.3636H53.2724V8.09091H59.842ZM54.7638 5.47727H57.7894V15.6477C57.7894 15.9271 57.832 16.1449 57.9173 16.3011C58.0025 16.4527 58.1209 16.5592 58.2724 16.6207C58.4286 16.6823 58.6085 16.7131 58.8121 16.7131C58.9542 16.7131 59.0962 16.7012 59.2383 16.6776C59.3803 16.6491 59.4892 16.6278 59.565 16.6136L60.0408 18.8651C59.8893 18.9124 59.6763 18.9669 59.4016 19.0284C59.127 19.0947 58.7932 19.1349 58.4002 19.1491C57.671 19.1776 57.0318 19.0805 56.4826 18.858C55.9381 18.6354 55.5143 18.2898 55.2113 17.821C54.9083 17.3523 54.7591 16.7604 54.7638 16.0455V5.47727ZM66.4986 19V4.45455H72.2372C73.3404 4.45455 74.2803 4.66525 75.0568 5.08665C75.8333 5.50331 76.4252 6.08333 76.8324 6.8267C77.2443 7.56534 77.4503 8.41761 77.4503 9.38352C77.4503 10.3494 77.242 11.2017 76.8253 11.9403C76.4086 12.679 75.8049 13.2543 75.0142 13.6662C74.2282 14.0781 73.2765 14.2841 72.1591 14.2841H68.5014V11.8196H71.6619C72.2538 11.8196 72.7415 11.7178 73.125 11.5142C73.5133 11.3059 73.8021 11.0194 73.9915 10.6548C74.1856 10.2855 74.2827 9.86174 74.2827 9.38352C74.2827 8.90057 74.1856 8.47917 73.9915 8.11932C73.8021 7.75473 73.5133 7.47301 73.125 7.27415C72.7367 7.07055 72.2443 6.96875 71.6477 6.96875H69.5739V19H66.4986ZM79.391 19V8.09091H82.3242V9.99432H82.4379C82.6367 9.31723 82.9705 8.80587 83.4393 8.46023C83.908 8.10985 84.4478 7.93466 85.0586 7.93466C85.2101 7.93466 85.3735 7.94413 85.5487 7.96307C85.7238 7.98201 85.8777 8.00805 86.0103 8.04119V10.7259C85.8683 10.6832 85.6718 10.6454 85.4208 10.6122C85.1699 10.5791 84.9402 10.5625 84.7319 10.5625C84.2868 10.5625 83.8891 10.6596 83.5387 10.8537C83.1931 11.0431 82.9184 11.3082 82.7148 11.6491C82.516 11.9901 82.4165 12.383 82.4165 12.8281V19H79.391ZM91.9957 19.2131C90.8925 19.2131 89.9384 18.9787 89.1335 18.5099C88.3333 18.0365 87.7154 17.3783 87.2798 16.5355C86.8442 15.688 86.6264 14.7055 86.6264 13.5881C86.6264 12.4612 86.8442 11.4763 87.2798 10.6335C87.7154 9.78598 88.3333 9.12784 89.1335 8.65909C89.9384 8.18561 90.8925 7.94886 91.9957 7.94886C93.099 7.94886 94.0507 8.18561 94.8509 8.65909C95.6558 9.12784 96.276 9.78598 96.7116 10.6335C97.1473 11.4763 97.3651 12.4612 97.3651 13.5881C97.3651 14.7055 97.1473 15.688 96.7116 16.5355C96.276 17.3783 95.6558 18.0365 94.8509 18.5099C94.0507 18.9787 93.099 19.2131 91.9957 19.2131ZM92.0099 16.8693C92.5118 16.8693 92.9309 16.7273 93.267 16.4432C93.6032 16.1544 93.8565 15.7614 94.027 15.2642C94.2022 14.767 94.2898 14.2012 94.2898 13.5668C94.2898 12.9323 94.2022 12.3665 94.027 11.8693C93.8565 11.3722 93.6032 10.9792 93.267 10.6903C92.9309 10.4015 92.5118 10.2571 92.0099 10.2571C91.5033 10.2571 91.0772 10.4015 90.7315 10.6903C90.3906 10.9792 90.1326 11.3722 89.9574 11.8693C89.7869 12.3665 89.7017 12.9323 89.7017 13.5668C89.7017 14.2012 89.7869 14.767 89.9574 15.2642C90.1326 15.7614 90.3906 16.1544 90.7315 16.4432C91.0772 16.7273 91.5033 16.8693 92.0099 16.8693ZM104.247 23.3182C103.267 23.3182 102.427 23.1832 101.726 22.9134C101.03 22.6482 100.476 22.286 100.064 21.8267C99.652 21.3674 99.3845 20.8513 99.2614 20.2784L102.06 19.902C102.145 20.1198 102.28 20.3234 102.464 20.5128C102.649 20.7022 102.893 20.8537 103.196 20.9673C103.504 21.0857 103.878 21.1449 104.318 21.1449C104.976 21.1449 105.518 20.9839 105.945 20.6619C106.375 20.3447 106.591 19.812 106.591 19.0639V17.0682H106.463C106.33 17.3712 106.132 17.6577 105.866 17.9276C105.601 18.1974 105.26 18.4176 104.844 18.5881C104.427 18.7585 103.93 18.8438 103.352 18.8438C102.533 18.8438 101.787 18.6544 101.115 18.2756C100.447 17.892 99.9148 17.3073 99.517 16.5213C99.1241 15.7306 98.9276 14.7315 98.9276 13.5241C98.9276 12.2884 99.1288 11.2562 99.5312 10.4276C99.9337 9.59896 100.469 8.97869 101.136 8.56676C101.809 8.15483 102.545 7.94886 103.345 7.94886C103.956 7.94886 104.467 8.05303 104.879 8.26136C105.291 8.46496 105.623 8.72064 105.874 9.02841C106.129 9.33144 106.326 9.62973 106.463 9.9233H106.577V8.09091H109.581V19.1065C109.581 20.0346 109.354 20.8111 108.899 21.4361C108.445 22.0611 107.815 22.5298 107.01 22.8423C106.21 23.1596 105.289 23.3182 104.247 23.3182ZM104.311 16.571C104.799 16.571 105.211 16.4503 105.547 16.2088C105.888 15.9626 106.148 15.6122 106.328 15.1577C106.513 14.6984 106.605 14.1491 106.605 13.5099C106.605 12.8707 106.515 12.3168 106.335 11.848C106.155 11.3745 105.895 11.0076 105.554 10.7472C105.213 10.4867 104.799 10.3565 104.311 10.3565C103.814 10.3565 103.395 10.4915 103.054 10.7614C102.713 11.0265 102.455 11.3958 102.28 11.8693C102.105 12.3428 102.017 12.8897 102.017 13.5099C102.017 14.1397 102.105 14.6842 102.28 15.1435C102.46 15.598 102.718 15.9508 103.054 16.2017C103.395 16.4479 103.814 16.571 104.311 16.571ZM111.989 19V8.09091H114.922V9.99432H115.036C115.234 9.31723 115.568 8.80587 116.037 8.46023C116.506 8.10985 117.045 7.93466 117.656 7.93466C117.808 7.93466 117.971 7.94413 118.146 7.96307C118.321 7.98201 118.475 8.00805 118.608 8.04119V10.7259C118.466 10.6832 118.269 10.6454 118.018 10.6122C117.768 10.5791 117.538 10.5625 117.33 10.5625C116.884 10.5625 116.487 10.6596 116.136 10.8537C115.791 11.0431 115.516 11.3082 115.312 11.6491C115.114 11.9901 115.014 12.383 115.014 12.8281V19H111.989ZM124.636 19.2131C123.514 19.2131 122.548 18.9858 121.738 18.5312C120.933 18.072 120.313 17.4233 119.877 16.5852C119.442 15.7424 119.224 14.7457 119.224 13.5952C119.224 12.473 119.442 11.4882 119.877 10.6406C120.313 9.79309 120.926 9.13258 121.717 8.65909C122.512 8.18561 123.445 7.94886 124.515 7.94886C125.235 7.94886 125.905 8.06487 126.525 8.29688C127.15 8.52415 127.695 8.86742 128.159 9.3267C128.627 9.78598 128.992 10.3636 129.252 11.0597C129.513 11.7509 129.643 12.5606 129.643 13.4886V14.3196H120.431V12.4446H126.795C126.795 12.009 126.7 11.6231 126.511 11.2869C126.322 10.9508 126.059 10.688 125.723 10.4986C125.391 10.3045 125.005 10.2074 124.565 10.2074C124.106 10.2074 123.699 10.3139 123.343 10.527C122.993 10.7353 122.718 11.017 122.52 11.3722C122.321 11.7225 122.219 12.1132 122.214 12.544V14.3267C122.214 14.8665 122.314 15.3329 122.512 15.7259C122.716 16.1188 123.002 16.4219 123.372 16.6349C123.741 16.848 124.179 16.9545 124.686 16.9545C125.022 16.9545 125.33 16.9072 125.609 16.8125C125.888 16.7178 126.127 16.5758 126.326 16.3864C126.525 16.197 126.677 15.965 126.781 15.6903L129.579 15.875C129.437 16.5473 129.146 17.1345 128.706 17.6364C128.27 18.1335 127.707 18.5218 127.015 18.8011C126.329 19.0758 125.536 19.2131 124.636 19.2131ZM140.694 11.2017L137.924 11.3722C137.877 11.1354 137.775 10.9223 137.619 10.733C137.463 10.5388 137.257 10.3849 137.001 10.2713C136.75 10.1529 136.449 10.0938 136.099 10.0938C135.63 10.0938 135.235 10.1932 134.913 10.392C134.591 10.5862 134.43 10.8466 134.43 11.1733C134.43 11.4337 134.534 11.6539 134.743 11.8338C134.951 12.0137 135.308 12.1581 135.815 12.267L137.789 12.6648C138.85 12.8826 139.641 13.233 140.162 13.7159C140.682 14.1989 140.943 14.8333 140.943 15.6193C140.943 16.3343 140.732 16.9616 140.311 17.5014C139.894 18.0412 139.321 18.4626 138.592 18.7656C137.868 19.0639 137.032 19.2131 136.085 19.2131C134.641 19.2131 133.49 18.9124 132.633 18.3111C131.781 17.705 131.281 16.8812 131.135 15.8395L134.11 15.6832C134.2 16.1236 134.418 16.4598 134.764 16.6918C135.109 16.919 135.552 17.0327 136.092 17.0327C136.622 17.0327 137.048 16.9309 137.37 16.7273C137.697 16.5189 137.863 16.2514 137.868 15.9247C137.863 15.6501 137.747 15.4252 137.52 15.25C137.292 15.0701 136.942 14.9328 136.468 14.8381L134.579 14.4616C133.514 14.2486 132.721 13.8793 132.2 13.3537C131.684 12.8281 131.426 12.1581 131.426 11.3438C131.426 10.643 131.615 10.0393 131.994 9.53267C132.377 9.02604 132.915 8.63542 133.606 8.3608C134.302 8.08617 135.117 7.94886 136.049 7.94886C137.427 7.94886 138.511 8.24006 139.302 8.82244C140.098 9.40483 140.562 10.1979 140.694 11.2017ZM151.925 11.2017L149.155 11.3722C149.107 11.1354 149.006 10.9223 148.849 10.733C148.693 10.5388 148.487 10.3849 148.232 10.2713C147.981 10.1529 147.68 10.0938 147.33 10.0938C146.861 10.0938 146.465 10.1932 146.143 10.392C145.821 10.5862 145.661 10.8466 145.661 11.1733C145.661 11.4337 145.765 11.6539 145.973 11.8338C146.181 12.0137 146.539 12.1581 147.045 12.267L149.02 12.6648C150.08 12.8826 150.871 13.233 151.392 13.7159C151.913 14.1989 152.173 14.8333 152.173 15.6193C152.173 16.3343 151.963 16.9616 151.541 17.5014C151.125 18.0412 150.552 18.4626 149.822 18.7656C149.098 19.0639 148.262 19.2131 147.315 19.2131C145.871 19.2131 144.721 18.9124 143.864 18.3111C143.011 17.705 142.512 16.8812 142.365 15.8395L145.341 15.6832C145.431 16.1236 145.649 16.4598 145.994 16.6918C146.34 16.919 146.783 17.0327 147.322 17.0327C147.853 17.0327 148.279 16.9309 148.601 16.7273C148.928 16.5189 149.093 16.2514 149.098 15.9247C149.093 15.6501 148.977 15.4252 148.75 15.25C148.523 15.0701 148.172 14.9328 147.699 14.8381L145.81 14.4616C144.744 14.2486 143.951 13.8793 143.43 13.3537C142.914 12.8281 142.656 12.1581 142.656 11.3438C142.656 10.643 142.846 10.0393 143.224 9.53267C143.608 9.02604 144.145 8.63542 144.837 8.3608C145.533 8.08617 146.347 7.94886 147.28 7.94886C148.658 7.94886 149.742 8.24006 150.533 8.82244C151.328 9.40483 151.792 10.1979 151.925 11.2017Z" fill="black"/>
</svg>
